# xmcd
#
# Track frame offsets:
#	150
#	8716
#	21512
#	35928
#	52866
#	65019
#	81055
#	91351
#	106005
#	121664
#	136182
#	148892
#	162483
#	177156
#	188706
#	203864
#	218707
#	229916
#	241939
#	254102
#	268502
#	281395
#
# Disc length: 3945 seconds
#
# Revision: 1
# Processed by: cddbd v1.5.2PL0 Copyright (c) Steve Scherf et al.
# Submitted via: audiograbber 1.83.01
#
DISCID=3b0f6716
DTITLE=Don Williams - Treasures ( Lost and Found )
DYEAR=2001
DGENRE=
TTITLE0=Ramblin'
TTITLE1=I Want You Back Again
TTITLE2=Don't Stop Loving Me Now
TTITLE3=Donald and June
TTITLE4=I'll Be There
TTITLE5=Rainy Nights and Memories
TTITLE6=Just Enough Love
TTITLE7=If Love Gets There Before I Do
TTITLE8=Standin' In A Sea Of Teardrops
TTITLE9=Diamonds To Dust
TTITLE10=If She Just Helps Me Get Over You
TTITLE11=She's A Heartful
TTITLE12=Something 'Bout You
TTITLE13=The Only Game In Town
TTITLE14=Wrong End Of The Rainbow
TTITLE15=Whats The Score
TTITLE16=Catfish Bates
TTITLE17=I'll Take Your Love Anytime Baby
TTITLE18=Slowly But Surely
TTITLE19=I Can't Get To You From Here
TTITLE20=True Blue Hearts
TTITLE21=That Song About The River
EXTD=This Listing Is For Disc 1
EXTT0=
EXTT1=
EXTT2=
EXTT3=
EXTT4=
EXTT5=
EXTT6=
EXTT7=
EXTT8=
EXTT9=
EXTT10=
EXTT11=
EXTT12=
EXTT13=
EXTT14=
EXTT15=
EXTT16=
EXTT17=
EXTT18=
EXTT19=
EXTT20=
EXTT21=
PLAYORDER=
